<?xml version="1.0" encoding="utf-8"?>
<!-- Generator: Adobe Illustrator 19.2.1, SVG Export Plug-In . SVG Version: 6.00 Build 0)  -->
<svg version="1.1" id="Слой_1" xmlns="http://www.w3.org/2000/svg" xmlns:xlink="http://www.w3.org/1999/xlink" x="0px" y="0px"
	 width="30px" height="30px" viewBox="0 0 30 30" style="enable-background:new 0 0 30 30;" xml:space="preserve">
<path style="fill:#BBDEFB;" d="M15,0C6.7,0,0,6.7,0,15c0,8.3,6.7,15,15,15c8.3,0,15-6.7,15-15C30,6.7,23.3,0,15,0z M20.6,8h-2.2
	c-1.8,0-1.8,0.7-1.8,1.7V12h3.9L20,16h-3.4v10h-5V16h-4v-4h4V9.3c0-3.3,2.3-5.1,5.6-5.1c1.1,0,2.4,0.1,3.4,0.2V8z"/>
</svg>
