<?xml version="1.0" encoding="utf-8"?>

<svg version="1.1" xmlns="http://www.w3.org/2000/svg" xmlns:xlink="http://www.w3.org/1999/xlink" x="0px" y="0px" width="216px" height="80px" viewBox="0 0 216 80">
	<g>
		<g>
			<g style="enable-background:new ;">
                <path style="fill:#FFFFFF;" d="M6.3,27.8h3.5v16h10v3H6.3V27.8z" />
                <path style="fill:#FFFFFF;" d="M37.3,42.4h-9.5l-1.9,4.4h-3.7l8.6-19h3.5l8.6,19h-3.7L37.3,42.4z M36.1,39.7l-3.6-8.3l-3.6,8.3H36.1z" />
                <path style="fill:#FFFFFF;" d="M62.2,27.8v19h-2.9L48.7,34v12.9h-3.5v-19h2.9l10.5,12.9V27.8H62.2z" />
            </g>
		</g>
		<g>
			<g style="enable-background:new    ;">
                <path style="fill:#FFFFFF;" d="M162.1,42.4h-9.5l-1.9,4.4h-3.7l8.6-19h3.5l8.6,19h-3.7L162.1,42.4z M161,39.7l-3.6-8.3l-3.6,8.3H161z" />
                <path style="fill:#FFFFFF;" d="M182.6,46.8l-3.9-5.6c-0.2,0-0.4,0-0.7,0h-4.3v5.5h-3.5v-19h7.9c1.7,0,3.1,0.3,4.3,0.8c1.2,0.5,2.2,1.3,2.8,2.3c0.7,1,1,2.2,1,3.6c0,1.4-0.3,2.7-1,3.7s-1.7,1.8-3,2.3l4.4,6.2H182.6z M181.3,31.8c-0.8-0.7-2-1-3.5-1h-4.1v7.6h4.1c1.5,0,2.7-0.3,3.5-1c0.8-0.7,1.2-1.6,1.2-2.8C182.5,33.4,182.1,32.4,181.3,31.8z" />
                <path style="fill:#FFFFFF;" d="M206.3,46.8l0-12.6L200,44.7h-1.6l-6.3-10.3v12.4h-3.4v-19h2.9l7.6,12.6l7.4-12.6h2.9l0,19H206.3z" />
            </g>
        </g>
        <g id="Hand_1_">
            <g>
                <g>
                    <g>
                        <path style="fill:#FFFFFF;" d="M114.9,52.8c0-1.1-0.4-2.2-1.2-2.9c-0.5-0.5-1.2-0.9-1.9-1.1l2.2-2.2c0.8-0.8,1.2-1.8,1.2-2.9c0-1.1-0.4-2.2-1.2-2.9c-0.8-0.8-1.8-1.2-2.9-1.2s-2.2,0.4-2.9,1.2l-1.9,1.9c-0.2-0.7-0.5-1.3-1.1-1.9c-0.8-0.8-1.8-1.2-2.9-1.2c-1.1,0-2.2,0.4-2.9,1.2l-2.7,2.6c-0.2-0.7-0.5-1.4-1.1-1.9c-0.8-0.8-1.8-1.2-2.9-1.2c-1.1,0-2.2,0.4-2.9,1.2l-7.4,7.3h-7.1c-0.6,0-1,0.5-1,1s0.5,1,1,1h5.5c-0.6,1.5-0.3,3.3,0.9,4.5c1.3,1.3,3.2,1.5,4.8,0.8c0.2,0.8,0.5,1.6,1.1,2.2c1.3,1.3,3.2,1.5,4.8,0.8c0.2,0.8,0.5,1.6,1.1,2.2c1.3,1.3,3.2,1.5,4.8,0.8c0.2,0.8,0.5,1.6,1.1,2.2c0.8,0.8,1.8,1.2,2.9,1.2s2.2-0.4,2.9-1.2l8.5-8.5C114.5,54.9,114.9,53.9,114.9,52.8z M83,53.9c-0.4-0.4-0.6-0.9-0.6-1.5c0-0.6,0.2-1.1,0.6-1.5l0.4-0.4l7.7-7.7c0.4-0.4,0.9-0.6,1.5-0.6s1.1,0.2,1.5,0.6c0.8,0.8,0.8,2.2,0,2.9L86,53.9C85.2,54.7,83.9,54.7,83,53.9z M88.9,56.9c-0.4-0.4-0.6-0.9-0.6-1.5c0-0.6,0.2-1.1,0.6-1.5l11.8-11.7c0.4-0.4,0.9-0.6,1.5-0.6s1.1,0.2,1.5,0.6c0.8,0.8,0.8,2.2,0,2.9l-4.6,4.6l-5.7,5.7l0,0l-1.5,1.5C91.1,57.7,89.7,57.7,88.9,56.9z M94.8,59.8c-0.4-0.4-0.6-0.9-0.6-1.5c0-0.6,0.2-1.1,0.6-1.5l5.7-5.7l9-9c0.4-0.4,0.9-0.6,1.5-0.6c0.6,0,1.1,0.2,1.5,0.6c0.8,0.8,0.8,2.2,0,2.9l-4.7,4.7l0,0l-4.3,4.3l-5.8,5.7C96.9,60.6,95.6,60.6,94.8,59.8z M102.2,63.4c-0.6,0-1.1-0.2-1.5-0.6c-0.4-0.4-0.6-0.9-0.6-1.5c0-0.6,0.2-1.1,0.6-1.5l0.6-0.6l7.9-7.9c0.8-0.8,2.1-0.8,2.9,0s0.8,2.2,0,2.9l-8.5,8.5C103.3,63.1,102.7,63.4,102.2,63.4z" />
                        <path style="fill:#FFFFFF;" d="M100.1,19.8c0.6,0,1-0.5,1-1c0-0.6-0.5-1-1-1c-7.6,0-12,3.1-14.6,5c-0.8,0.5-1.8,1.2-2.1,1.2h-8.3c-0.6,0-1,0.5-1,1c0,0.6,0.5,1,1,1h8.4c1,0,1.9-0.7,3.2-1.6C89.3,22.6,93.3,19.8,100.1,19.8z" />
                        <path style="fill:#FFFFFF;" d="M132.5,49.9c0,0.6,0.5,1,1,1h2.1c0.6,0,1-0.5,1-1c0-0.6-0.5-1-1-1h-2.1C132.9,48.8,132.5,49.3,132.5,49.9z" />
                        <path style="fill:#FFFFFF;" d="M101.4,22.3c-1.6,2.4-6.1,10.1-6.3,10.5c-0.3,0.7-0.3,1.5,0.2,2.2c1,1.5,3.5,2.4,5,2.4c2,0,3.2-1.4,4.5-2.9c0.5-0.5,0.9-1.1,1.4-1.6l5.2-5.2c0.3-0.3,0.7-0.7,0.8-0.7c0.1,0,0.3,0,0.5,0c0.6,0.2,2.9,2.2,4.5,3.8l10.4,11.5c0.3,0.3,0.7,1,0.7,1.3V53c0,1.1-1,2.1-2.1,2.1c-1.1,0-2.1-1-2.1-2.1v-7.2c0-1.4-1.2-2.7-1.3-2.8l-7.3-7.3c-0.4-0.4-1.1-0.4-1.5,0c-0.4,0.4-0.4,1.1,0,1.5l7.3,7.3c0.3,0.3,0.7,1,0.7,1.3V53v3.1c0,1.1-1,2.1-2.1,2.1s-2.1-1-2.1-2.1v-8.3c0-0.6-0.5-1-1-1c-0.6,0-1,0.5-1,1v8.3v3.1c0,1.1-1,2.1-2.1,2.1c-0.5,0-1-0.2-1.4-0.5c-0.4-0.4-1.1-0.3-1.5,0.1c-0.4,0.4-0.3,1.1,0.1,1.5c0.8,0.7,1.8,1.1,2.8,1.1c2.1,0,3.9-1.6,4.1-3.7c0.6,0.4,1.3,0.6,2.1,0.6c2.1,0,3.9-1.6,4.1-3.7c0.6,0.4,1.3,0.6,2.1,0.6c2.3,0,4.2-1.9,4.2-4.1v-9.4c0-1.4-1.2-2.7-1.3-2.8l-10.4-11.5c-4.5-4.4-5.6-4.4-5.9-4.4c-1.4,0-1.6,0.2-2.8,1.3l-5.2,5.2c-0.6,0.6-1.1,1.2-1.5,1.7c-1.2,1.4-1.9,2.2-2.9,2.2c-1.3,0-3.2-1.1-3.3-1.6c0-0.1,4.6-7.9,6.2-10.3c1.8-2.7,4.6-5.8,10.6-5.8c4.5,0,10.5,3.5,14.6,5.8c2.9,1.7,4.3,2.5,5.3,2.5h2.1c0.6,0,1-0.5,1-1s-0.5-1-1-1h-2.1c-0.5,0-2.5-1.2-4.2-2.2c-4.5-2.6-10.6-6.2-15.6-6.2C106.7,15.6,103.3,19.4,101.4,22.3z" />
                    </g>
                </g>
            </g>
            <ellipse style="fill:#FFFFFF;" cx="74.1" cy="25" rx="3.7" ry="3.6" />
            <ellipse style="fill:#FFFFFF;" cx="74.1" cy="49.8" rx="3.7" ry="3.6" />
            <ellipse style="fill:#FFFFFF;" cx="137.4" cy="25" rx="3.7" ry="3.6" />
            <ellipse style="fill:#FFFFFF;" cx="113.8" cy="35.7" rx="3.7" ry="3.6" />
            <ellipse style="fill:#FFFFFF;" cx="99.2" cy="18.2" rx="3.7" ry="3.6" />
            <ellipse style="fill:#FFFFFF;" cx="137.4" cy="49.8" rx="3.7" ry="3.6" />
            <ellipse style="fill:#FFFFFF;" cx="116.8" cy="46.8" rx="1.8" ry="1.8" />
        </g>
    </g>
    <rect id="Line_1_" x="6.1" y="50.5" style="fill:#FFFFFF;" width="56.1" height="2.5" />
    <rect id="Line_2_" x="147" y="50.5" style="fill:#FFFFFF;" width="62.7" height="2.5" />
</svg>