<?xml version="1.0" encoding="utf-8"?>
<!-- Generator: Adobe Illustrator 19.2.1, SVG Export Plug-In . SVG Version: 6.00 Build 0)  -->
<svg version="1.1" id="Capa_1" xmlns="http://www.w3.org/2000/svg" xmlns:xlink="http://www.w3.org/1999/xlink" x="0px" y="0px"
	 width="30px" height="30px" viewBox="0 0 18 30" style="enable-background:new 0 0 18 30;" xml:space="preserve">
<style type="text/css">
	.st0{fill:#BBDEFB;}
</style>
<g>
	<path class="st0" d="M15.6,19.6c-1.6,1.1-3.9,1.5-5.2,1.6l1.2,1.2l4.4,4.4c0.7,0.7,0.7,1.7,0,2.4l-0.1,0.3c-0.7,0.7-1.7,0.7-2.5,0
		c-1.1-1.2-2.8-2.8-4.4-4.6l-4.4,4.6c-0.7,0.7-1.7,0.7-2.4,0L2,29.2c-0.7-0.7-0.7-1.7,0-2.4c1.2-1.2,2.8-2.8,4.4-4.4l1.2-1.2
		c-1.5-0.1-3.7-0.5-5.3-1.6c-1.9-1.2-2.8-2-2-3.5c0.4-0.8,1.6-1.6,3.2-0.4c0,0,2.1,1.7,5.6,1.7s5.6-1.7,5.6-1.7
		c1.6-1.2,2.8-0.5,3.2,0.4C18.4,17.7,17.6,18.4,15.6,19.6z M1.4,7.6C1.4,3.4,4.8,0,8.9,0s7.6,3.4,7.6,7.6s-3.5,7.6-7.6,7.6
		S1.4,11.8,1.4,7.6z M5.2,7.6c0,2,1.7,3.8,3.7,3.8s3.7-1.7,3.7-3.8s-1.7-3.8-3.7-3.8S5.2,5.5,5.2,7.6z"/>
</g>
</svg>
