<?xml version="1.0" encoding="utf-8"?>
<!-- Generator: Adobe Illustrator 19.2.1, SVG Export Plug-In . SVG Version: 6.00 Build 0)  -->
<svg version="1.1" id="Слой_1" xmlns="http://www.w3.org/2000/svg" xmlns:xlink="http://www.w3.org/1999/xlink" x="0px" y="0px"
	 width="30px" height="30px" viewBox="0 0 30 30" style="enable-background:new 0 0 30 30;" xml:space="preserve">
<g>
	<path style="fill:#BBDEFB;" d="M15,0.1c-8.3,0-15,6.7-15,15s6.7,15,15,15s15-6.7,15-15S23.3,0.1,15,0.1z M14.9,3
		c3.3,0,6.2,2.8,6.2,6.2c0,3.4-2.8,6.2-6.2,6.2c-3.3,0-6.1-2.8-6.1-6.2C8.8,5.7,11.6,3,14.9,3z M20.3,18.8c-1.3,0.9-3.2,1.2-4.2,1.3
		l1,1l3.6,3.6c0.6,0.6,0.6,1.4,0,1.9l-0.1,0.2c-0.6,0.6-1.4,0.6-2,0c-0.9-1-2.3-2.3-3.6-3.7l-3.6,3.7c-0.6,0.6-1.4,0.6-1.9,0
		l-0.2-0.2c-0.6-0.6-0.6-1.4,0-1.9c1-1,2.3-2.3,3.6-3.6l1-1c-1.2-0.1-3-0.4-4.3-1.3c-1.5-1-2.3-1.6-1.6-2.8c0.3-0.6,1.3-1.3,2.6-0.3
		c0,0,1.7,1.4,4.5,1.4c2.8,0,4.5-1.4,4.5-1.4c1.3-1,2.3-0.4,2.6,0.3C22.6,17.3,21.9,17.9,20.3,18.8z"/>
	<path style="fill:#BBDEFB;" d="M14.9,12.2c1.6,0,3-1.4,3-3.1c0-1.7-1.4-3.1-3-3.1c-1.6,0-3,1.4-3,3.1
		C11.9,10.7,13.3,12.2,14.9,12.2z"/>
</g>
</svg>
