<?xml version="1.0" encoding="utf-8"?>
<!-- Generator: Adobe Illustrator 19.2.1, SVG Export Plug-In . SVG Version: 6.00 Build 0)  -->
<svg version="1.1" id="Capa_1" xmlns="http://www.w3.org/2000/svg" xmlns:xlink="http://www.w3.org/1999/xlink" x="0px" y="0px"
	 width="24px" height="24px" viewBox="0 0 24 24" style="enable-background:new 0 0 24 24;" xml:space="preserve">
<style type="text/css">
	.st0{fill:#FFFFFF;}
</style>
<g>
	<g>
		<g>
			<path class="st0" d="M23,18.7l-3.6-3.6c-0.7-0.7-1.9-0.7-2.6,0L15,17c-0.1-0.1-0.2-0.1-0.4-0.2c-1.1-0.6-2.7-1.5-4.3-3.1
				C8.7,12,7.9,10.5,7.2,9.3C7.2,9.2,7.1,9.1,7,9l1.2-1.2l0.6-0.6c0.7-0.7,0.8-1.9,0-2.6L5.3,1c-0.7-0.7-1.9-0.7-2.6,0l-1,1l0,0
				C1.4,2.5,1.1,3,0.9,3.6C0.7,4.1,0.6,4.5,0.5,5c-0.5,3.9,1.3,7.5,6.2,12.3c6.7,6.7,12.1,6.2,12.3,6.2c0.5-0.1,1-0.2,1.5-0.4
				c0.5-0.2,1-0.5,1.5-0.8l0,0l1-1C23.7,20.6,23.7,19.4,23,18.7z"/>
		</g>
	</g>
</g>
</svg>
