<?xml version="1.0" encoding="utf-8"?>
<!-- Generator: Adobe Illustrator 19.2.1, SVG Export Plug-In . SVG Version: 6.00 Build 0)  -->
<svg version="1.1" id="Слой_1" xmlns="http://www.w3.org/2000/svg" xmlns:xlink="http://www.w3.org/1999/xlink" x="0px" y="0px"
	 width="23px" height="23px" viewBox="0 0 23 19" style="enable-background:new 0 0 23 19;" xml:space="preserve">
<style type="text/css">
	.st0{fill:#BBDEFB;}
</style>
<title>Twitter_normal</title>
<path class="st0" d="M23,2.3c-0.6,0.9-1.4,1.8-2.3,2.5v0.6c0,1.3-0.2,2.6-0.6,3.8c-0.4,1.3-1,2.5-1.7,3.7s-1.6,2.2-2.7,3.1
	c-1.1,1-2.4,1.7-3.8,2.2C10.4,18.7,8.8,19,7.2,19c-2.6,0-5.1-0.7-7.2-2.1c0.4,0,0.7,0,1.1,0c2.1,0,4.2-0.7,5.8-2
	c-2-0.1-3.7-1.4-4.4-3.3c0.3,0,0.6,0.1,0.9,0.1c0.4,0,0.8-0.1,1.2-0.2c-1.1-0.2-2-0.8-2.7-1.6c-0.6-0.9-1-2-1-3.1V6.6
	C1.6,7,2.3,7.2,3.1,7.2C1,5.9,0.4,3.1,1.6,0.9c1.2,1.5,2.6,2.7,4.3,3.5c1.7,0.9,3.5,1.4,5.4,1.5c-0.1-0.4-0.1-0.7-0.1-1.1
	c0-2.6,2.1-4.8,4.7-4.8c1.3,0,2.6,0.5,3.5,1.5c1.1-0.2,2.1-0.6,3-1.1c-0.3,1.1-1.1,2-2.1,2.6C21.3,2.9,22.1,2.7,23,2.3z"/>
</svg>
