<?xml version="1.0" encoding="utf-8"?>
<!-- Generator: Adobe Illustrator 19.2.1, SVG Export Plug-In . SVG Version: 6.00 Build 0)  -->
<svg version="1.1" id="Слой_1" xmlns="http://www.w3.org/2000/svg" xmlns:xlink="http://www.w3.org/1999/xlink" x="0px" y="0px"
	 width="30px" height="30px" viewBox="0 0 30 30" style="enable-background:new 0 0 30 30;" xml:space="preserve">
<path style="fill:#BBDEFB;" d="M15,0C6.7,0,0,6.7,0,15c0,8.3,6.7,15,15,15s15-6.7,15-15C30,6.7,23.3,0,15,0z M24.3,23h-3
	c-0.5,0-1.1-0.2-1.5-0.5c-1.1-0.8-2.2-3-3-2.7c0,0-0.8,0.3-0.8,2.2c0,0.2-0.1,0.6-0.2,0.7c-0.1,0.2-0.4,0.4-0.6,0.4
	c-0.3,0-1.4,0-1.4,0c-2.9,0-5.5-2.8-5.5-2.8S5.3,17,2.7,10.7c-0.1-0.2-0.1-0.4,0-0.6C2.9,9.9,3.2,10,3.4,10h3.2c0.2,0,0.3,0,0.5,0.1
	c0.1,0.1,0.2,0.2,0.3,0.3c0.3,0.9,0.8,1.8,1.2,2.7c1.2,2.5,1.9,3,2.4,2.7c0,0,0.6-0.4,0.5-3.5c0-0.5-0.1-1.1-0.3-1.6
	c-0.2-0.4-0.6-0.5-1-0.5c-0.2,0,0.1-0.5,0.5-0.7c0.9-0.4,1.8-0.3,2.8-0.3c0.5,0,1.1,0.1,1.6,0.1c1.1,0.3,0.8,1.4,0.8,4
	c0,0.8-0.1,2.1,0.4,2.4c0.3,0.2,0.9,0,2.3-2.7c0.5-0.9,0.9-1.8,1.2-2.7c0.1-0.1,0.1-0.3,0.3-0.3c0.3,0,0.4,0,0.5,0H24
	c1.1,0,1.3,0.3,1.3,0.3c0.1,0.5-0.4,1.7-1.8,3.7c-2.3,3.2-2.5,2.9-0.6,4.8c0.9,0.8,1.6,1.7,2.3,2.7c0.3,0.3,0.2,1-0.1,1.3
	C24.8,22.9,24.5,23,24.3,23z"/>
</svg>
